<?xml version="1.0" encoding="UTF-8" standalone="no"?>
<!DOCTYPE svg PUBLIC "-//W3C//DTD SVG 1.1//EN" "http://www.w3.org/Graphics/SVG/1.1/DTD/svg11.dtd">
<svg width="100%" height="100%" viewBox="0 0 220 309" version="1.1" xmlns="http://www.w3.org/2000/svg" xmlns:xlink="http://www.w3.org/1999/xlink" xml:space="preserve" xmlns:serif="http://www.serif.com/" style="fill-rule:evenodd;clip-rule:evenodd;stroke-linecap:round;stroke-linejoin:round;stroke-miterlimit:1.5;">
    <g id="Artboard1" transform="matrix(0.893722,0,0,0.953039,-10.7723,-383.849)">
        <rect x="12.053" y="402.763" width="245.418" height="324.219" style="fill:none;"/>
        <g id="Layer-1" serif:id="Layer 1" transform="matrix(1.11892,0,0,1.04928,-30.5578,-35.0218)">
            <path d="M212.498,530.682C216.913,528.452 214.549,521.212 213.527,517.873C211.138,510.068 204.771,507.266 197.138,505.361C195.248,504.889 189.396,503.081 187.138,504.12C183.553,505.771 177.577,509.186 176.289,513.543C175.63,515.771 176.021,520.132 176.546,522.2C177.073,524.279 177.964,526.715 179.606,528.279C181.784,530.354 185.337,530.789 188.005,531.232C193.157,532.087 201.083,532.479 206.312,531.987C208.41,531.789 210.617,531.632 212.498,530.682Z" style="fill:rgb(255,90,90);stroke:black;stroke-width:1.07px;"/>
            <path d="M192.793,678.53C192.058,688.082 190.587,707.185 193.137,714.718C193.779,716.615 221.925,718.672 222.29,716.039C223.36,708.337 221.449,687.396 220.493,676.926" style="fill:rgb(255,90,90);stroke:black;stroke-width:1.07px;"/>
            <path d="M223.629,508.481C224.098,508.754 224.57,509.029 225.003,509.357C225.712,509.895 226.476,510.39 227.048,511.071C227.896,512.083 229.747,515.573 230.284,516.785C230.739,517.814 231.111,518.878 231.483,519.94C229.936,521.688 228.386,523.441 226.695,525.048C225.351,526.326 221.696,530.017 218.998,529.579C217.925,529.405 216.378,528.135 215.741,527.437C213.137,524.582 211.326,522.108 209.546,518.673C208.991,517.603 208.541,516.473 208.206,515.315C208.047,514.764 208.391,514.013 208.898,513.756C211.202,512.588 213.826,512.964 216.175,511.985C218.709,510.929 221.171,509.704 223.629,508.481Z" style="fill:rgb(255,90,90);stroke:black;stroke-width:1.07px;"/>
            <path d="M248.192,546.464C244.734,547.135 241.273,547.806 237.859,548.672C236.3,549.068 233.135,550.459 231.887,551.569C231,552.357 230.352,553.382 229.661,554.345C229.237,554.936 228.891,555.58 228.547,556.22C227.963,555.397 227.378,554.572 226.874,553.698C226.042,552.257 225.089,550.856 224.541,549.285C223.694,546.861 223.278,544.306 222.719,541.799C222.347,540.125 222.047,538.435 221.748,536.746C222.121,536.325 222.496,535.903 222.906,535.517C223.331,535.116 224.427,534.165 225.119,534.121C229.78,533.828 230.026,534.691 234.838,534.682C237.395,534.677 239.94,534.276 242.497,534.24C243.761,534.223 245.024,534.373 246.279,534.521C246.665,534.838 247.053,535.156 247.391,535.523C248.765,537.013 249.073,537.167 249.249,539.083C249.306,539.699 249.287,540.327 249.2,540.941C248.934,542.793 248.563,544.63 248.192,546.464Z" style="fill:rgb(255,90,90);stroke:black;stroke-width:1.07px;"/>
            <path d="M170.986,462.514C172.064,463.894 174.676,465.815 175.186,467.652C175.434,468.546 181.451,496.307 183.018,501.499C183.909,504.45 184.756,507.474 186.286,510.15C188.879,514.686 200.886,515.048 202.799,509.747C203.998,506.421 203.108,502.661 203.727,499.18C206.841,481.688 208.893,490.578 209.118,472.884" style="fill:rgb(255,90,90);stroke:black;stroke-width:1.07px;"/>
            <path d="M145.205,500.865L179.571,517.155C181.542,516.629 185.712,515.11 186.834,513.669C191.098,508.189 193.696,496.007 202.523,494.683C219.4,492.151 236.816,493.759 253.475,489.76C257.378,483.395 257.158,477.603 252.196,471.939C231.84,472.245 210.166,476.453 189.941,472.628C180.331,470.811 175.182,468.037 166.364,464.056C148.037,455.781 132.005,446.363 114.905,436.124C106.706,438.269 102.972,445.953 102.213,453.66C113.312,465.228 129.567,471.878 143.697,478.636C147.617,480.511 151.394,480.69 152.428,485.318C153.428,489.789 147.04,497.041 145.205,500.865Z" style="fill:rgb(87,197,255);stroke:black;stroke-width:1.07px;"/>
            <path d="M64.108,519.484C69.754,522.531 74.899,525.961 81.323,527.024C80.618,530.34 79.915,533.657 79.322,536.995C78.864,539.569 78.284,545.911 77.489,548.414C76.929,550.177 75.098,553.105 73.901,554.783C67.136,555 63.961,555.03 58.077,555.566C55.132,553.927 51.941,551.894 52.379,548C52.487,547.042 53.683,544.202 54.15,543.214C59.604,541.181 65.465,540.473 71.109,539.047C72.564,538.679 74.011,538.282 75.458,537.885C71.93,536.899 66.785,535.499 63.618,533.623C63.436,533.515 58.579,529.632 56.974,528.356C57.863,524.831 57.991,522.381 61.441,520.295C62.237,519.814 63.336,520 64.108,519.484Z" style="fill:rgb(255,90,90);stroke:black;stroke-width:1.07px;"/>
            <path d="M111.159,473.334C109.326,472.971 107.488,472.607 105.628,472.432C102.74,472.16 99.701,472.366 96.831,472.788C94.335,473.155 92.181,473.7 89.887,474.749C88.478,475.393 87.161,476.228 85.853,477.059C86.256,482.535 86.659,488.012 87.105,493.485C87.269,495.499 87.635,497.499 87.681,499.52C87.981,512.786 78.819,523.966 75.304,536.49C64.407,575.326 70.539,615.632 69.191,655.338C68.919,663.363 67.682,671.326 66.895,679.316C66.573,682.592 66.219,685.865 65.865,689.137L96.282,689.819C96.595,684.918 96.875,679.545 96.916,674.634C96.962,669.003 96.716,660.481 96.723,657.379C96.735,651.103 99.445,652.654 99.889,641.342C100.95,614.347 100.915,592.967 103.704,565.96C105.249,550.997 117.015,539.308 115.447,523.82C114.144,510.943 112.254,511.426 111.606,498.393C111.378,493.816 112.508,489.251 112.426,484.669C112.358,480.868 111.756,477.089 111.159,473.334Z" style="fill:rgb(87,197,255);stroke:black;stroke-width:1.07px;"/>
            <path d="M209.13,473.541C208.824,462.606 209.985,452.544 205.739,442.14C196.059,418.422 165.356,413.192 144.624,425.392C134.944,431.089 128.933,439.572 123.212,448.997C121.847,451.247 113.478,465.744 112.42,468.94C108.974,479.347 108.169,493.091 109.117,503.871C109.842,512.125 112.224,526.299 118.836,532.312C124.767,537.706 136.791,526.321 140.44,523.141C144.937,519.222 149.274,514.457 151.627,508.853C152.769,506.131 147.413,502.054 146.945,500.13C146.463,498.151 149.111,494.581 150.646,491.195C151.667,488.943 151.867,487.257 152.132,486.21C152.931,483.039 152.434,478.904 153.678,475.88C155.741,470.867 163.33,457.878 170.986,462.514C172.819,463.624 173.625,465.893 174.944,467.582" style="fill:rgb(255,90,90);stroke:black;stroke-width:1.07px;"/>
            <path d="M170.803,490.645C153.862,489.122 143.684,498.948 135.093,512.322C131.61,517.742 129.784,521.912 127.633,527.729C127.105,529.158 126.981,532.321 125.55,531.797C115.497,528.115 112.807,515.532 100.433,516.331C92.96,516.814 89.7,521.759 85.132,526.693C70.142,542.887 51.348,570.103 56.672,593.745C57.485,597.356 60.673,602.343 63.312,604.818C64.581,606.01 66.159,606.867 67.754,607.565C68.698,607.978 70.402,607.144 70.799,608.094C71.632,610.088 70.44,612.429 70.682,614.576C71.645,623.103 74.345,635.779 81.116,642.032C115.799,674.065 160.008,689.407 206.566,692.721C207.403,692.781 224.884,693.214 230.599,691.489C244.524,687.285 249.066,668.458 250.504,656.017C251.413,648.158 252.416,640.281 252.557,632.371C252.896,613.289 250.98,591.345 242.969,573.68C241.243,569.875 238.519,566.595 236.016,563.249C234.388,561.072 230.35,558.302 229.428,555.499C228.944,554.03 229.356,544.745 228.812,543.449C226.901,538.893 223.738,534.971 221.203,530.731C218.465,526.152 216.296,521.183 212.993,516.993C209.355,512.38 200.691,510.151 195.575,513.347C193.755,514.484 191.998,515.914 190.868,517.738C190.088,518.997 190.449,520.673 190.137,522.121C189.928,523.09 190.086,525.589 189.308,524.975C186.804,522.999 184.764,520.183 183.819,517.136C182.985,514.444 184.467,511.502 184.26,508.691C183.695,500.992 179.427,491.421 170.803,490.645Z" style="fill:rgb(242,214,170);stroke:black;stroke-width:1px;"/>
            <path d="M182.096,519.782C179.661,520.331 178.554,523.365 177.259,525.499C171.125,535.607 167.922,547.778 165.537,559.237C159.194,589.72 181.807,609.977 195.694,634.05C201.336,643.829 202.315,661.459 217.636,661.388C219.004,661.381 224.217,660.359 225.287,658.466C225.992,657.219 225.175,655.44 225.92,654.216C227.565,651.514 232.141,650.784 232.814,647.692C234.075,641.902 233.531,634.068 232.743,627.984C232.307,624.613 229.461,621.666 230.432,618.11C230.737,616.992 232.129,616.444 232.583,615.377C233.887,612.315 234.49,605.54 233.545,602.716C233.074,601.307 231.22,600.841 230.249,599.716C227.184,596.165 227.346,595.236 226.924,590.319C226.532,585.752 227.928,581.524 227.079,577.058C226.607,574.575 225.458,575.381 224.381,573.197C222.935,570.263 224.257,564.795 221.59,562.373C220.392,561.286 217.7,562.269 216.71,562.832C211.388,565.86 211.453,572.905 210.946,578.169C210.707,580.64 211.194,585.178 208.713,585.274C205.662,585.392 206.582,579.034 206.569,578.703C206.349,572.94 205.399,572.881 208.017,567.724C209.801,564.211 210.378,562.083 213.711,560.289C219.187,557.341 223.281,558.501 222.952,550.387C222.429,537.498 216.501,530.129 207.349,521.717C204.435,519.038 195.786,516.116 194.309,522.836C193.467,526.671 194.67,530.684 194.66,534.61C194.627,547.78 194.261,547.617 195.92,560.748C196.302,563.768 197.272,572.389 197.093,575.82C197.006,577.477 197.354,579.537 196.184,580.712C195.512,581.389 194.066,580.043 193.803,579.127C193.093,576.651 193.659,573.977 193.515,571.406C193.346,568.373 193.18,565.338 192.863,562.317C191.834,552.511 191.453,541.186 188.707,531.647C187.91,528.88 186.583,526.291 185.403,523.663C185.226,523.27 183.537,519.457 182.096,519.782Z" style="fill:rgb(255,35,53);stroke:black;stroke-width:0.8px;"/>
            <path id="path847" d="M122.5,542C123.097,530.875 105.814,519.246 95.601,521.864C89.526,523.421 85.867,532.661 83.229,536.897C76.733,547.326 65.87,560.255 63.912,573.296C63.334,577.141 63.565,581.08 63.816,584.96C63.954,587.104 64.448,589.226 65.071,591.282C65.719,593.419 66.43,595.586 67.612,597.481C71.837,604.253 77.549,596.284 82.264,595.076C86.186,594.071 90.348,593.972 94.385,594.285C104.562,595.075 106.403,597.304 114.097,603.454C115.072,604.233 116.088,605.042 116.739,606.108C117.394,607.182 119.166,609.725 117.908,609.697C115.586,609.644 114.013,607.16 112,606C104.706,601.798 100.464,598.255 91.375,597.108C86.434,596.485 79.512,599.152 78.054,604.416C75.209,614.685 92.996,627.8 97.558,632.143C103.701,637.991 115.086,651.818 124.589,652.237C129.676,652.462 131.082,648.516 135.747,651.174C138.998,653.027 136.706,657.789 139.869,659.11C143.685,660.703 148.035,660.811 151.788,662.548C152.92,663.072 152.949,664.844 153.928,665.619C159.46,669.999 163.954,672.422 171.27,671.761C178.445,671.112 177.803,659.363 176.668,655.497C174.844,649.284 168.14,641.775 165.423,636.091C159.197,623.067 153.973,609.809 154.892,595.161C155.395,587.134 156.025,579.077 157.537,571.178C159.76,559.567 163.224,560.606 164.453,548.877C164.589,547.577 164.039,546.143 163.16,545.176C160.499,542.247 155.218,544.78 152.942,540.754C152.037,539.154 151.956,537.199 151.717,535.376C151.507,533.775 151.213,530.909 153.313,530.022C155.266,529.197 153.702,534.271 154.302,536.304C155.685,540.989 163.388,542.219 166.274,538.461C172.979,529.731 181.45,505.91 164.511,501.621C150.927,498.182 135.358,513.81 135.48,527.203C135.525,532.136 142.081,533.548 145.455,531.33C146.598,530.578 147.67,527.818 148.659,528.764C151.458,531.44 142.619,535.707 142.417,535.759C138.804,536.698 134.516,529.582 131.617,533.978C123.288,546.609 119.779,565.522 120.737,580.148C121.264,588.206 127.783,595.232 127.767,603.167C127.765,603.9 126.172,603.081 125.652,602.564C123.998,600.922 122.564,599.012 121.494,596.941C119.746,593.557 118.343,589.979 117.262,586.327C114.722,577.746 114.325,573.357 115.86,564.701C116.783,559.501 122.303,545.677 122.5,542Z" style="fill:rgb(87,131,255);fill-rule:nonzero;stroke:black;stroke-width:0.75px;stroke-linecap:butt;stroke-linejoin:miter;stroke-miterlimit:4;"/>
            <g transform="matrix(1,0,0,1,-0.457064,-12.6033)">
                <ellipse cx="99.675" cy="546.448" rx="11.069" ry="8.415" style="fill:rgb(87,76,255);"/>
            </g>
            <g transform="matrix(0.401891,0.361455,-0.422564,0.469838,396.287,236.425)">
                <ellipse cx="99.675" cy="546.448" rx="11.069" ry="8.415" style="fill:rgb(208,35,53);"/>
            </g>
            <g transform="matrix(0.198596,0.502718,-0.587711,0.232172,517.104,367.677)">
                <ellipse cx="99.675" cy="546.448" rx="11.069" ry="8.415" style="fill:rgb(208,35,53);"/>
            </g>
            <g transform="matrix(1.20635,0,0,1.12048,39.4603,-99.4238)">
                <ellipse cx="99.675" cy="546.448" rx="11.069" ry="8.415" style="fill:rgb(87,76,255);"/>
            </g>
            <g transform="matrix(1,0,0,1,-19.0436,37.5548)">
                <ellipse cx="99.675" cy="546.448" rx="11.069" ry="8.415" style="fill:rgb(87,76,255);"/>
            </g>
            <path d="M168.902,546.124C169.325,546.232 169.748,546.341 170.177,546.418C170.542,546.484 170.911,546.543 171.281,546.553C172.645,546.589 173.964,545.873 174.923,544.936C176.362,543.528 175.705,541.747 176.118,539.977C176.167,539.765 176.801,539.08 177.144,539.399C177.628,539.849 178.157,540.494 178.416,541.132C178.809,542.099 178.611,543.006 178.363,544.058C177.711,546.818 175.909,548.937 173.233,549.952C172.164,550.357 170.227,550.719 169.231,550.778C168.776,550.805 168.319,550.708 167.873,550.612L168.902,546.124Z" style="fill:rgb(242,214,170);stroke:black;stroke-width:0.53px;"/>
            <path d="M187.832,528.913L190.23,536.923C190.082,537.231 189.933,537.54 189.748,537.828C189.445,538.297 189.167,538.795 188.769,539.187C188.352,539.598 187.839,539.902 187.338,540.204C185.561,541.275 181.953,542.365 180.617,540.022C179.897,538.759 181.118,538.864 182.016,538.801C183.76,538.679 184.852,538.869 186.068,537.386C187.154,536.062 187.658,534.233 187.819,532.561C187.891,531.809 187.88,531.05 187.883,530.294C187.884,529.833 187.858,529.373 187.832,528.913Z" style="fill:rgb(242,214,170);stroke:black;stroke-width:0.53px;"/>
            <g transform="matrix(1,0,0,1,4.50248,6.48499)">
                <text x="83.361px" y="561.334px" style="font-family:'CMUSerif-Roman', 'CMU Serif';font-weight:500;font-size:20px;">A</text>
            </g>
            <g transform="matrix(1,0,0,1,46.5043,74.5914)">
                <text x="83.361px" y="561.334px" style="font-family:'CMUSerif-Roman', 'CMU Serif';font-weight:500;font-size:20px;">B</text>
            </g>
            <g transform="matrix(1,0,0,1,114.671,-4.80536)">
                <text x="83.361px" y="561.334px" style="font-family:'CMUSerif-Roman', 'CMU Serif';font-weight:500;font-size:20px;">E</text>
            </g>
            <g transform="matrix(1,0,0,1,117.084,53.3269)">
                <text x="83.361px" y="561.334px" style="font-family:'CMUSerif-Roman', 'CMU Serif';font-weight:500;font-size:20px;">F</text>
            </g>
            <g transform="matrix(1,0,0,1,139.119,162.808)">
                <text x="83.361px" y="561.334px" style="font-family:'CMUSerif-Roman', 'CMU Serif';font-weight:500;font-size:20px;">G</text>
            </g>
            <g transform="matrix(1,0,0,1,-44.9905,-23.9134)">
                <text x="83.361px" y="561.334px" style="font-family:'CMUSerif-Roman', 'CMU Serif';font-weight:500;font-size:20px;">D</text>
            </g>
            <g transform="matrix(1,0,0,1,152.63,-32.5484)">
                <text x="83.361px" y="561.334px" style="font-family:'CMUSerif-Roman', 'CMU Serif';font-weight:500;font-size:20px;">D</text>
            </g>
            <g transform="matrix(1,0,0,1,88.2954,-72.7801)">
                <text x="83.361px" y="561.334px" style="font-family:'CMUSerif-Roman', 'CMU Serif';font-weight:500;font-size:20px;">C</text>
            </g>
        </g>
    </g>
</svg>
